<mxfile host="app.diagrams.net" modified="2023-08-31T16:37:40.475Z" agent="Mozilla/5.0 (Windows NT 10.0; Win64; x64) AppleWebKit/537.36 (KHTML, like Gecko) Chrome/114.0.0.0 YaBrowser/23.7.3.823 Yowser/2.5 Safari/537.36" etag="Qlztpu2Px65cYVzNZxrM" version="21.7.1" type="device">
  <diagram name="Страница — 1" id="uSHeygnSFOwc4ozRT1oA">
    <mxGraphModel dx="989" dy="546" grid="1" gridSize="10" guides="1" tooltips="1" connect="1" arrows="1" fold="1" page="1" pageScale="1" pageWidth="827" pageHeight="1169" math="0" shadow="0">
      <root>
        <mxCell id="0" />
        <mxCell id="1" parent="0" />
        <mxCell id="eRiPK2wYSvRdkzWshQ3Z-1" value="user" style="rounded=0;whiteSpace=wrap;html=1;" vertex="1" parent="1">
          <mxGeometry x="359" y="200" width="81" height="40" as="geometry" />
        </mxCell>
        <mxCell id="eRiPK2wYSvRdkzWshQ3Z-2" value="PK id" style="ellipse;whiteSpace=wrap;html=1;" vertex="1" parent="1">
          <mxGeometry x="359" y="120" width="81" height="40" as="geometry" />
        </mxCell>
        <mxCell id="eRiPK2wYSvRdkzWshQ3Z-3" value="user_slug" style="rounded=0;whiteSpace=wrap;html=1;" vertex="1" parent="1">
          <mxGeometry x="560" y="200" width="81" height="40" as="geometry" />
        </mxCell>
        <mxCell id="eRiPK2wYSvRdkzWshQ3Z-4" value="" style="endArrow=none;html=1;rounded=0;exitX=0.5;exitY=0;exitDx=0;exitDy=0;entryX=0.5;entryY=1;entryDx=0;entryDy=0;" edge="1" parent="1" source="eRiPK2wYSvRdkzWshQ3Z-1" target="eRiPK2wYSvRdkzWshQ3Z-2">
          <mxGeometry width="50" height="50" relative="1" as="geometry">
            <mxPoint x="390" y="280" as="sourcePoint" />
            <mxPoint x="440" y="230" as="targetPoint" />
          </mxGeometry>
        </mxCell>
        <mxCell id="eRiPK2wYSvRdkzWshQ3Z-5" value="1:n" style="rhombus;whiteSpace=wrap;html=1;" vertex="1" parent="1">
          <mxGeometry x="480" y="200" width="40" height="40" as="geometry" />
        </mxCell>
        <mxCell id="eRiPK2wYSvRdkzWshQ3Z-6" value="" style="endArrow=none;html=1;rounded=0;entryX=0;entryY=0.5;entryDx=0;entryDy=0;exitX=1;exitY=0.5;exitDx=0;exitDy=0;" edge="1" parent="1" source="eRiPK2wYSvRdkzWshQ3Z-1" target="eRiPK2wYSvRdkzWshQ3Z-5">
          <mxGeometry width="50" height="50" relative="1" as="geometry">
            <mxPoint x="390" y="280" as="sourcePoint" />
            <mxPoint x="440" y="230" as="targetPoint" />
          </mxGeometry>
        </mxCell>
        <mxCell id="eRiPK2wYSvRdkzWshQ3Z-7" value="" style="endArrow=none;html=1;rounded=0;entryX=0;entryY=0.5;entryDx=0;entryDy=0;exitX=1;exitY=0.5;exitDx=0;exitDy=0;" edge="1" parent="1" source="eRiPK2wYSvRdkzWshQ3Z-5" target="eRiPK2wYSvRdkzWshQ3Z-3">
          <mxGeometry width="50" height="50" relative="1" as="geometry">
            <mxPoint x="520" y="219.76" as="sourcePoint" />
            <mxPoint x="560" y="219.76" as="targetPoint" />
          </mxGeometry>
        </mxCell>
        <mxCell id="eRiPK2wYSvRdkzWshQ3Z-9" value="FK user_id" style="ellipse;whiteSpace=wrap;html=1;" vertex="1" parent="1">
          <mxGeometry x="560" y="120" width="80" height="40" as="geometry" />
        </mxCell>
        <mxCell id="eRiPK2wYSvRdkzWshQ3Z-10" value="dt_end&amp;nbsp;" style="ellipse;whiteSpace=wrap;html=1;" vertex="1" parent="1">
          <mxGeometry x="640" y="120" width="80" height="40" as="geometry" />
        </mxCell>
        <mxCell id="eRiPK2wYSvRdkzWshQ3Z-11" value="FK slug_name" style="ellipse;whiteSpace=wrap;html=1;" vertex="1" parent="1">
          <mxGeometry x="480" y="120" width="80" height="40" as="geometry" />
        </mxCell>
        <mxCell id="eRiPK2wYSvRdkzWshQ3Z-12" value="" style="endArrow=none;html=1;rounded=0;exitX=0.5;exitY=1;exitDx=0;exitDy=0;entryX=0.5;entryY=0;entryDx=0;entryDy=0;" edge="1" parent="1" source="eRiPK2wYSvRdkzWshQ3Z-9" target="eRiPK2wYSvRdkzWshQ3Z-3">
          <mxGeometry width="50" height="50" relative="1" as="geometry">
            <mxPoint x="600" y="220" as="sourcePoint" />
            <mxPoint x="650" y="170" as="targetPoint" />
          </mxGeometry>
        </mxCell>
        <mxCell id="eRiPK2wYSvRdkzWshQ3Z-13" value="" style="endArrow=none;html=1;rounded=0;entryX=0.5;entryY=1;entryDx=0;entryDy=0;exitX=0.5;exitY=0;exitDx=0;exitDy=0;" edge="1" parent="1" source="eRiPK2wYSvRdkzWshQ3Z-3" target="eRiPK2wYSvRdkzWshQ3Z-10">
          <mxGeometry width="50" height="50" relative="1" as="geometry">
            <mxPoint x="600" y="220" as="sourcePoint" />
            <mxPoint x="650" y="170" as="targetPoint" />
          </mxGeometry>
        </mxCell>
        <mxCell id="eRiPK2wYSvRdkzWshQ3Z-14" value="" style="endArrow=none;html=1;rounded=0;exitX=0.5;exitY=0;exitDx=0;exitDy=0;entryX=0.5;entryY=1;entryDx=0;entryDy=0;" edge="1" parent="1" source="eRiPK2wYSvRdkzWshQ3Z-3" target="eRiPK2wYSvRdkzWshQ3Z-11">
          <mxGeometry width="50" height="50" relative="1" as="geometry">
            <mxPoint x="600" y="220" as="sourcePoint" />
            <mxPoint x="650" y="170" as="targetPoint" />
          </mxGeometry>
        </mxCell>
        <mxCell id="eRiPK2wYSvRdkzWshQ3Z-15" value="slug" style="rounded=0;whiteSpace=wrap;html=1;" vertex="1" parent="1">
          <mxGeometry x="560" y="360" width="81" height="40" as="geometry" />
        </mxCell>
        <mxCell id="eRiPK2wYSvRdkzWshQ3Z-16" value="PK name" style="ellipse;whiteSpace=wrap;html=1;" vertex="1" parent="1">
          <mxGeometry x="680" y="360" width="81" height="40" as="geometry" />
        </mxCell>
        <mxCell id="eRiPK2wYSvRdkzWshQ3Z-17" value="" style="endArrow=none;html=1;rounded=0;exitX=1;exitY=0.5;exitDx=0;exitDy=0;entryX=0;entryY=0.5;entryDx=0;entryDy=0;" edge="1" parent="1" source="eRiPK2wYSvRdkzWshQ3Z-15" target="eRiPK2wYSvRdkzWshQ3Z-16">
          <mxGeometry width="50" height="50" relative="1" as="geometry">
            <mxPoint x="591" y="440" as="sourcePoint" />
            <mxPoint x="641" y="390" as="targetPoint" />
          </mxGeometry>
        </mxCell>
        <mxCell id="eRiPK2wYSvRdkzWshQ3Z-18" value="" style="endArrow=none;html=1;rounded=0;entryX=0.5;entryY=1;entryDx=0;entryDy=0;exitX=0.5;exitY=0;exitDx=0;exitDy=0;" edge="1" parent="1" source="eRiPK2wYSvRdkzWshQ3Z-19" target="eRiPK2wYSvRdkzWshQ3Z-3">
          <mxGeometry width="50" height="50" relative="1" as="geometry">
            <mxPoint x="570" y="280" as="sourcePoint" />
            <mxPoint x="570" y="230" as="targetPoint" />
          </mxGeometry>
        </mxCell>
        <mxCell id="eRiPK2wYSvRdkzWshQ3Z-19" value="n:1" style="rhombus;whiteSpace=wrap;html=1;" vertex="1" parent="1">
          <mxGeometry x="580" y="280" width="40" height="40" as="geometry" />
        </mxCell>
        <mxCell id="eRiPK2wYSvRdkzWshQ3Z-20" value="" style="endArrow=none;html=1;rounded=0;entryX=0.5;entryY=1;entryDx=0;entryDy=0;exitX=0.5;exitY=0;exitDx=0;exitDy=0;" edge="1" parent="1" source="eRiPK2wYSvRdkzWshQ3Z-15" target="eRiPK2wYSvRdkzWshQ3Z-19">
          <mxGeometry width="50" height="50" relative="1" as="geometry">
            <mxPoint x="510" y="350" as="sourcePoint" />
            <mxPoint x="560" y="300" as="targetPoint" />
          </mxGeometry>
        </mxCell>
        <mxCell id="eRiPK2wYSvRdkzWshQ3Z-21" value="user_slug" style="rounded=0;whiteSpace=wrap;html=1;" vertex="1" parent="1">
          <mxGeometry x="359.5" y="360" width="81" height="40" as="geometry" />
        </mxCell>
        <mxCell id="eRiPK2wYSvRdkzWshQ3Z-22" value="1:n" style="rhombus;whiteSpace=wrap;html=1;" vertex="1" parent="1">
          <mxGeometry x="380" y="280" width="40" height="40" as="geometry" />
        </mxCell>
        <mxCell id="eRiPK2wYSvRdkzWshQ3Z-23" value="" style="endArrow=none;html=1;rounded=0;entryX=0.5;entryY=0;entryDx=0;entryDy=0;exitX=0.5;exitY=1;exitDx=0;exitDy=0;" edge="1" parent="1" source="eRiPK2wYSvRdkzWshQ3Z-22" target="eRiPK2wYSvRdkzWshQ3Z-21">
          <mxGeometry width="50" height="50" relative="1" as="geometry">
            <mxPoint x="319.5" y="379.76" as="sourcePoint" />
            <mxPoint x="359.5" y="379.76" as="targetPoint" />
          </mxGeometry>
        </mxCell>
        <mxCell id="eRiPK2wYSvRdkzWshQ3Z-24" value="FK user_id" style="ellipse;whiteSpace=wrap;html=1;" vertex="1" parent="1">
          <mxGeometry x="359.5" y="460" width="80" height="40" as="geometry" />
        </mxCell>
        <mxCell id="eRiPK2wYSvRdkzWshQ3Z-25" value="dt_end&amp;nbsp;" style="ellipse;whiteSpace=wrap;html=1;" vertex="1" parent="1">
          <mxGeometry x="439.5" y="460" width="80" height="40" as="geometry" />
        </mxCell>
        <mxCell id="eRiPK2wYSvRdkzWshQ3Z-26" value="FK slug_name" style="ellipse;whiteSpace=wrap;html=1;" vertex="1" parent="1">
          <mxGeometry x="279.5" y="460" width="80" height="40" as="geometry" />
        </mxCell>
        <mxCell id="eRiPK2wYSvRdkzWshQ3Z-27" value="" style="endArrow=none;html=1;rounded=0;exitX=0.5;exitY=0;exitDx=0;exitDy=0;" edge="1" parent="1" source="eRiPK2wYSvRdkzWshQ3Z-24">
          <mxGeometry width="50" height="50" relative="1" as="geometry">
            <mxPoint x="399.5" y="380" as="sourcePoint" />
            <mxPoint x="400" y="400" as="targetPoint" />
          </mxGeometry>
        </mxCell>
        <mxCell id="eRiPK2wYSvRdkzWshQ3Z-28" value="" style="endArrow=none;html=1;rounded=0;entryX=0.5;entryY=0;entryDx=0;entryDy=0;exitX=0.5;exitY=1;exitDx=0;exitDy=0;" edge="1" parent="1" source="eRiPK2wYSvRdkzWshQ3Z-21" target="eRiPK2wYSvRdkzWshQ3Z-25">
          <mxGeometry width="50" height="50" relative="1" as="geometry">
            <mxPoint x="399.5" y="380" as="sourcePoint" />
            <mxPoint x="449.5" y="330" as="targetPoint" />
          </mxGeometry>
        </mxCell>
        <mxCell id="eRiPK2wYSvRdkzWshQ3Z-29" value="" style="endArrow=none;html=1;rounded=0;exitX=0.5;exitY=1;exitDx=0;exitDy=0;entryX=0.5;entryY=0;entryDx=0;entryDy=0;" edge="1" parent="1" source="eRiPK2wYSvRdkzWshQ3Z-21" target="eRiPK2wYSvRdkzWshQ3Z-26">
          <mxGeometry width="50" height="50" relative="1" as="geometry">
            <mxPoint x="399.5" y="380" as="sourcePoint" />
            <mxPoint x="449.5" y="330" as="targetPoint" />
          </mxGeometry>
        </mxCell>
        <mxCell id="eRiPK2wYSvRdkzWshQ3Z-30" value="" style="endArrow=none;html=1;rounded=0;entryX=1;entryY=0.5;entryDx=0;entryDy=0;exitX=0;exitY=0.5;exitDx=0;exitDy=0;" edge="1" parent="1" source="eRiPK2wYSvRdkzWshQ3Z-31" target="eRiPK2wYSvRdkzWshQ3Z-21">
          <mxGeometry width="50" height="50" relative="1" as="geometry">
            <mxPoint x="369.5" y="440" as="sourcePoint" />
            <mxPoint x="369.5" y="390" as="targetPoint" />
          </mxGeometry>
        </mxCell>
        <mxCell id="eRiPK2wYSvRdkzWshQ3Z-31" value="n:1" style="rhombus;whiteSpace=wrap;html=1;" vertex="1" parent="1">
          <mxGeometry x="480" y="360" width="40" height="40" as="geometry" />
        </mxCell>
        <mxCell id="eRiPK2wYSvRdkzWshQ3Z-32" value="" style="endArrow=none;html=1;rounded=0;exitX=0.5;exitY=0;exitDx=0;exitDy=0;entryX=0.5;entryY=1;entryDx=0;entryDy=0;" edge="1" parent="1" source="eRiPK2wYSvRdkzWshQ3Z-22" target="eRiPK2wYSvRdkzWshQ3Z-1">
          <mxGeometry width="50" height="50" relative="1" as="geometry">
            <mxPoint x="440" y="340" as="sourcePoint" />
            <mxPoint x="490" y="290" as="targetPoint" />
          </mxGeometry>
        </mxCell>
        <mxCell id="eRiPK2wYSvRdkzWshQ3Z-33" value="" style="endArrow=none;html=1;rounded=0;exitX=1;exitY=0.5;exitDx=0;exitDy=0;entryX=0;entryY=0.5;entryDx=0;entryDy=0;" edge="1" parent="1" source="eRiPK2wYSvRdkzWshQ3Z-31" target="eRiPK2wYSvRdkzWshQ3Z-15">
          <mxGeometry width="50" height="50" relative="1" as="geometry">
            <mxPoint x="440" y="340" as="sourcePoint" />
            <mxPoint x="490" y="290" as="targetPoint" />
          </mxGeometry>
        </mxCell>
      </root>
    </mxGraphModel>
  </diagram>
</mxfile>
